<svg width="24" height="25" viewBox="0 0 24 25" fill="none" xmlns="http://www.w3.org/2000/svg">
<path d="M14.72 9.24459L10.43 13.5446L8.78 11.8946C8.69036 11.7899 8.58004 11.7049 8.45597 11.6449C8.33191 11.5848 8.19678 11.5511 8.05906 11.5458C7.92134 11.5405 7.78401 11.5637 7.65568 11.614C7.52736 11.6642 7.41081 11.7405 7.31335 11.8379C7.2159 11.9354 7.13964 12.0519 7.08937 12.1803C7.03909 12.3086 7.01589 12.4459 7.02121 12.5836C7.02653 12.7214 7.06026 12.8565 7.12028 12.9806C7.1803 13.1046 7.26532 13.2149 7.37 13.3046L9.72 15.6646C9.81344 15.7573 9.92426 15.8306 10.0461 15.8804C10.1679 15.9301 10.2984 15.9554 10.43 15.9546C10.6923 15.9535 10.9437 15.8493 11.13 15.6646L16.13 10.6646C16.2237 10.5716 16.2981 10.461 16.3489 10.3392C16.3997 10.2173 16.4258 10.0866 16.4258 9.95459C16.4258 9.82258 16.3997 9.69187 16.3489 9.57001C16.2981 9.44815 16.2237 9.33755 16.13 9.24459C15.9426 9.05834 15.6892 8.9538 15.425 8.9538C15.1608 8.9538 14.9074 9.05834 14.72 9.24459ZM12 2.45459C10.0222 2.45459 8.08879 3.04108 6.4443 4.13989C4.79981 5.23871 3.51809 6.80049 2.76121 8.62776C2.00433 10.455 1.8063 12.4657 2.19215 14.4055C2.578 16.3453 3.53041 18.1271 4.92894 19.5257C6.32746 20.9242 8.10929 21.8766 10.0491 22.2624C11.9889 22.6483 13.9996 22.4503 15.8268 21.6934C17.6541 20.9365 19.2159 19.6548 20.3147 18.0103C21.4135 16.3658 22 14.4324 22 12.4546C22 11.1414 21.7413 9.84101 21.2388 8.62776C20.7363 7.4145 19.9997 6.31211 19.0711 5.38352C18.1425 4.45494 17.0401 3.71834 15.8268 3.21579C14.6136 2.71325 13.3132 2.45459 12 2.45459ZM12 20.4546C10.4178 20.4546 8.87104 19.9854 7.55544 19.1063C6.23985 18.2273 5.21447 16.9779 4.60897 15.5161C4.00347 14.0542 3.84504 12.4457 4.15372 10.8939C4.4624 9.34202 5.22433 7.91656 6.34315 6.79774C7.46197 5.67892 8.88743 4.91699 10.4393 4.60831C11.9911 4.29963 13.5997 4.45805 15.0615 5.06355C16.5233 5.66905 17.7727 6.69443 18.6518 8.01003C19.5308 9.32562 20 10.8723 20 12.4546C20 14.5763 19.1572 16.6112 17.6569 18.1114C16.1566 19.6117 14.1217 20.4546 12 20.4546Z" fill="#242424"/>
</svg>
