<svg width="32" height="32" viewBox="0 0 32 32" fill="none" xmlns="http://www.w3.org/2000/svg">
<g clip-path="url(#clip0_1224_2105)">
<rect width="32" height="32" fill="white"/>
<path d="M5 16H28" stroke="#242424" stroke-width="2" stroke-linecap="round"/>
<path d="M13.9999 15H6.4099L9.7099 11.71C9.8982 11.5217 10.004 11.2663 10.004 11C10.004 10.7337 9.8982 10.4783 9.7099 10.29C9.52159 10.1017 9.2662 9.99591 8.9999 9.99591C8.73359 9.99591 8.4782 10.1017 8.2899 10.29L3.2899 15.29C3.19886 15.3851 3.12749 15.4972 3.0799 15.62C2.97988 15.8635 2.97988 16.1365 3.0799 16.38C3.12749 16.5028 3.19886 16.6149 3.2899 16.71L8.2899 21.71C8.38286 21.8037 8.49346 21.8781 8.61532 21.9289C8.73718 21.9797 8.86788 22.0058 8.9999 22.0058C9.13191 22.0058 9.26261 21.9797 9.38447 21.9289C9.50633 21.8781 9.61693 21.8037 9.7099 21.71C9.80363 21.617 9.87802 21.5064 9.92879 21.3846C9.97956 21.2627 10.0057 21.132 10.0057 21C10.0057 20.868 9.97956 20.7373 9.92879 20.6154C9.87802 20.4936 9.80363 20.383 9.7099 20.29L6.4099 17H13.9999C14.2651 17 14.5195 16.8946 14.707 16.7071C14.8945 16.5196 14.9999 16.2652 14.9999 16C14.9999 15.7348 14.8945 15.4804 14.707 15.2929C14.5195 15.1054 14.2651 15 13.9999 15Z" fill="#242424"/>
</g>
<defs>
<clipPath id="clip0_1224_2105">
<rect width="32" height="32" fill="none"/>
</clipPath>
</defs>
</svg>
