<svg width="25" height="24" viewBox="0 0 25 24" fill="none" xmlns="http://www.w3.org/2000/svg">
<path d="M13.449 12.0002L19.749 5.71019C19.9373 5.52188 20.0431 5.26649 20.0431 5.00019C20.0431 4.73388 19.9373 4.47849 19.749 4.29019C19.5607 4.10188 19.3053 3.99609 19.039 3.99609C18.7727 3.99609 18.5173 4.10188 18.329 4.29019L12.039 10.5902L5.749 4.29019C5.5607 4.10188 5.3053 3.99609 5.039 3.99609C4.7727 3.99609 4.51731 4.10188 4.329 4.29019C4.1407 4.47849 4.03491 4.73388 4.03491 5.00019C4.03491 5.26649 4.1407 5.52188 4.329 5.71019L10.629 12.0002L4.329 18.2902C4.23527 18.3831 4.16088 18.4937 4.11011 18.6156C4.05934 18.7375 4.0332 18.8682 4.0332 19.0002C4.0332 19.1322 4.05934 19.2629 4.11011 19.3848C4.16088 19.5066 4.23527 19.6172 4.329 19.7102C4.42196 19.8039 4.53257 19.8783 4.65443 19.9291C4.77628 19.9798 4.90699 20.006 5.039 20.006C5.17101 20.006 5.30172 19.9798 5.42358 19.9291C5.54544 19.8783 5.65604 19.8039 5.749 19.7102L12.039 13.4102L18.329 19.7102C18.422 19.8039 18.5326 19.8783 18.6544 19.9291C18.7763 19.9798 18.907 20.006 19.039 20.006C19.171 20.006 19.3017 19.9798 19.4236 19.9291C19.5454 19.8783 19.656 19.8039 19.749 19.7102C19.8427 19.6172 19.9171 19.5066 19.9679 19.3848C20.0187 19.2629 20.0448 19.1322 20.0448 19.0002C20.0448 18.8682 20.0187 18.7375 19.9679 18.6156C19.9171 18.4937 19.8427 18.3831 19.749 18.2902L13.449 12.0002Z" fill="#242424"/>
</svg>
