<svg width="160" height="50" viewBox="0 0 160 50" fill="none" xmlns="http://www.w3.org/2000/svg">
<rect x="0.5" y="0.5" width="159" height="49" rx="4.5" fill="white"/>
<path d="M28.2666 25.6313C28.2666 27.3452 27.832 28.6929 26.9629 29.6743C26.0986 30.6558 24.895 31.1465 23.3521 31.1465C21.7749 31.1465 20.5566 30.6655 19.6973 29.7036C18.8428 28.7368 18.4155 27.3745 18.4155 25.6167C18.4155 23.8735 18.8452 22.5234 19.7046 21.5664C20.564 20.6045 21.7847 20.1235 23.3667 20.1235C24.9048 20.1235 26.106 20.6118 26.9702 21.5884C27.8345 22.5649 28.2666 23.9126 28.2666 25.6313ZM19.7339 25.6313C19.7339 27.0815 20.0415 28.1826 20.6567 28.9346C21.2769 29.6816 22.1753 30.0552 23.3521 30.0552C24.5386 30.0552 25.4346 29.6816 26.04 28.9346C26.6455 28.1875 26.9482 27.0864 26.9482 25.6313C26.9482 24.1909 26.6455 23.0996 26.04 22.3574C25.4395 21.6104 24.5483 21.2368 23.3667 21.2368C22.1802 21.2368 21.2769 21.6128 20.6567 22.3647C20.0415 23.1118 19.7339 24.2007 19.7339 25.6313ZM34.1406 22.8262C34.4971 22.8262 34.8169 22.8555 35.1001 22.9141L34.9316 24.042C34.5996 23.9688 34.3066 23.9321 34.0527 23.9321C33.4033 23.9321 32.8467 24.1958 32.3828 24.7231C31.9238 25.2505 31.6943 25.9072 31.6943 26.6934V31H30.4785V22.9727H31.4819L31.6211 24.4595H31.6797C31.9775 23.937 32.3364 23.5342 32.7563 23.251C33.1763 22.9678 33.6377 22.8262 34.1406 22.8262ZM42.0654 29.9233H41.9995C41.438 30.7388 40.5981 31.1465 39.48 31.1465C38.4302 31.1465 37.6123 30.7876 37.0264 30.0698C36.4453 29.3521 36.1548 28.3315 36.1548 27.0083C36.1548 25.6851 36.4478 24.6572 37.0337 23.9248C37.6196 23.1924 38.4351 22.8262 39.48 22.8262C40.5688 22.8262 41.4038 23.2217 41.9849 24.0127H42.0801L42.0288 23.4341L41.9995 22.8701V19.6035H43.2153V31H42.2266L42.0654 29.9233ZM39.6338 30.1284C40.4639 30.1284 41.0645 29.9038 41.4355 29.4546C41.8115 29.0005 41.9995 28.2705 41.9995 27.2646V27.0083C41.9995 25.8706 41.8091 25.0601 41.4282 24.5767C41.0522 24.0884 40.4492 23.8442 39.6191 23.8442C38.9062 23.8442 38.3594 24.1226 37.9785 24.6792C37.6025 25.231 37.4146 26.0122 37.4146 27.0229C37.4146 28.0483 37.6025 28.8223 37.9785 29.3447C38.3545 29.8672 38.9062 30.1284 39.6338 30.1284ZM49.1919 31.1465C48.0054 31.1465 47.0679 30.7852 46.3794 30.0625C45.6958 29.3398 45.354 28.3364 45.354 27.0522C45.354 25.7583 45.6714 24.7305 46.3062 23.9688C46.9458 23.207 47.8027 22.8262 48.877 22.8262C49.8828 22.8262 50.6787 23.1582 51.2646 23.8223C51.8506 24.4814 52.1436 25.353 52.1436 26.437V27.2061H46.6138C46.6382 28.1484 46.875 28.8638 47.3242 29.3521C47.7783 29.8403 48.4155 30.0845 49.2358 30.0845C50.1001 30.0845 50.9546 29.9038 51.7993 29.5425V30.6265C51.3696 30.812 50.9619 30.9438 50.5762 31.022C50.1953 31.105 49.7339 31.1465 49.1919 31.1465ZM48.8623 23.8442C48.2178 23.8442 47.7026 24.0542 47.3169 24.4741C46.936 24.894 46.7114 25.4751 46.6431 26.2173H50.8398C50.8398 25.4507 50.6689 24.8647 50.3271 24.4595C49.9854 24.0493 49.4971 23.8442 48.8623 23.8442ZM57.8857 22.8262C58.2422 22.8262 58.562 22.8555 58.8452 22.9141L58.6768 24.042C58.3447 23.9688 58.0518 23.9321 57.7979 23.9321C57.1484 23.9321 56.5918 24.1958 56.1279 24.7231C55.6689 25.2505 55.4395 25.9072 55.4395 26.6934V31H54.2236V22.9727H55.2271L55.3662 24.4595H55.4248C55.7227 23.937 56.0815 23.5342 56.5015 23.251C56.9214 22.9678 57.3828 22.8262 57.8857 22.8262ZM71.1719 26.979C71.1719 28.2876 70.8423 29.3105 70.1831 30.0479C69.5239 30.7803 68.6133 31.1465 67.4512 31.1465C66.7334 31.1465 66.0962 30.978 65.5396 30.6411C64.9829 30.3042 64.5532 29.8208 64.2505 29.1909C63.9478 28.561 63.7964 27.8237 63.7964 26.979C63.7964 25.6704 64.1235 24.6523 64.7778 23.9248C65.4321 23.1924 66.3403 22.8262 67.5024 22.8262C68.6255 22.8262 69.5166 23.1997 70.1758 23.9468C70.8398 24.6938 71.1719 25.7046 71.1719 26.979ZM65.0562 26.979C65.0562 28.0044 65.2612 28.7856 65.6714 29.3228C66.0815 29.8599 66.6846 30.1284 67.4805 30.1284C68.2764 30.1284 68.8794 29.8623 69.2896 29.3301C69.7046 28.793 69.9121 28.0093 69.9121 26.979C69.9121 25.9585 69.7046 25.1846 69.2896 24.6572C68.8794 24.125 68.2715 23.8589 67.4658 23.8589C66.6699 23.8589 66.0693 24.1201 65.6641 24.6426C65.2588 25.165 65.0562 25.9438 65.0562 26.979ZM77.0459 31.1465C76.5234 31.1465 76.0449 31.0513 75.6104 30.8608C75.1807 30.6655 74.8193 30.3677 74.5264 29.9673H74.4385C74.4971 30.436 74.5264 30.8804 74.5264 31.3003V34.6035H73.3105V22.9727H74.2993L74.4678 24.0713H74.5264C74.8389 23.6318 75.2026 23.3145 75.6177 23.1191C76.0327 22.9238 76.5088 22.8262 77.0459 22.8262C78.1104 22.8262 78.9307 23.1899 79.5068 23.9175C80.0879 24.645 80.3784 25.6655 80.3784 26.979C80.3784 28.2974 80.083 29.3228 79.4922 30.0552C78.9062 30.7827 78.0908 31.1465 77.0459 31.1465ZM76.8701 23.8589C76.0498 23.8589 75.4565 24.0859 75.0903 24.54C74.7241 24.9941 74.5361 25.7168 74.5264 26.708V26.979C74.5264 28.1069 74.7144 28.915 75.0903 29.4033C75.4663 29.8867 76.0693 30.1284 76.8994 30.1284C77.5928 30.1284 78.1348 29.8477 78.5254 29.2861C78.9209 28.7246 79.1187 27.9507 79.1187 26.9644C79.1187 25.9634 78.9209 25.1968 78.5254 24.6646C78.1348 24.1274 77.583 23.8589 76.8701 23.8589ZM85.1025 30.1431C85.3174 30.1431 85.5249 30.1284 85.7251 30.0991C85.9253 30.0649 86.084 30.0308 86.2012 29.9966V30.9268C86.0693 30.9902 85.874 31.0415 85.6152 31.0806C85.3613 31.1245 85.1318 31.1465 84.9268 31.1465C83.374 31.1465 82.5977 30.3286 82.5977 28.6929V23.9175H81.4478V23.3315L82.5977 22.8262L83.1104 21.1123H83.8135V22.9727H86.1426V23.9175H83.8135V28.6416C83.8135 29.125 83.9282 29.4961 84.1577 29.7549C84.3872 30.0137 84.7021 30.1431 85.1025 30.1431ZM89.0283 31H87.8125V22.9727H89.0283V31ZM87.71 20.7974C87.71 20.519 87.7783 20.3164 87.915 20.1895C88.0518 20.0576 88.2227 19.9917 88.4277 19.9917C88.623 19.9917 88.7915 20.0576 88.9331 20.1895C89.0747 20.3213 89.1455 20.5239 89.1455 20.7974C89.1455 21.0708 89.0747 21.2759 88.9331 21.4126C88.7915 21.5444 88.623 21.6104 88.4277 21.6104C88.2227 21.6104 88.0518 21.5444 87.915 21.4126C87.7783 21.2759 87.71 21.0708 87.71 20.7974ZM98.5352 26.979C98.5352 28.2876 98.2056 29.3105 97.5464 30.0479C96.8872 30.7803 95.9766 31.1465 94.8145 31.1465C94.0967 31.1465 93.4595 30.978 92.9028 30.6411C92.3462 30.3042 91.9165 29.8208 91.6138 29.1909C91.311 28.561 91.1597 27.8237 91.1597 26.979C91.1597 25.6704 91.4868 24.6523 92.1411 23.9248C92.7954 23.1924 93.7036 22.8262 94.8657 22.8262C95.9888 22.8262 96.8799 23.1997 97.5391 23.9468C98.2031 24.6938 98.5352 25.7046 98.5352 26.979ZM92.4194 26.979C92.4194 28.0044 92.6245 28.7856 93.0347 29.3228C93.4448 29.8599 94.0479 30.1284 94.8438 30.1284C95.6396 30.1284 96.2427 29.8623 96.6528 29.3301C97.0679 28.793 97.2754 28.0093 97.2754 26.979C97.2754 25.9585 97.0679 25.1846 96.6528 24.6572C96.2427 24.125 95.6348 23.8589 94.8291 23.8589C94.0332 23.8589 93.4326 24.1201 93.0273 24.6426C92.6221 25.165 92.4194 25.9438 92.4194 26.979ZM106.167 31V25.8071C106.167 25.1528 106.018 24.6646 105.72 24.3423C105.422 24.02 104.956 23.8589 104.321 23.8589C103.481 23.8589 102.866 24.0859 102.476 24.54C102.085 24.9941 101.89 25.7437 101.89 26.7886V31H100.674V22.9727H101.663L101.86 24.0713H101.919C102.168 23.6758 102.517 23.3706 102.966 23.1558C103.416 22.936 103.916 22.8262 104.468 22.8262C105.435 22.8262 106.162 23.0605 106.65 23.5293C107.139 23.9932 107.383 24.7378 107.383 25.7632V31H106.167ZM115.066 28.8101C115.066 29.5571 114.788 30.1333 114.231 30.5386C113.674 30.9438 112.893 31.1465 111.887 31.1465C110.823 31.1465 109.993 30.978 109.397 30.6411V29.5132C109.783 29.7085 110.195 29.8623 110.635 29.9746C111.079 30.0869 111.506 30.1431 111.917 30.1431C112.551 30.1431 113.04 30.043 113.381 29.8428C113.723 29.6377 113.894 29.3276 113.894 28.9126C113.894 28.6001 113.757 28.334 113.484 28.1143C113.215 27.8896 112.688 27.626 111.902 27.3232C111.155 27.0449 110.623 26.8032 110.305 26.5981C109.993 26.3882 109.758 26.1514 109.602 25.8877C109.451 25.624 109.375 25.3091 109.375 24.9429C109.375 24.2886 109.641 23.7734 110.173 23.3975C110.706 23.0166 111.436 22.8262 112.363 22.8262C113.228 22.8262 114.072 23.002 114.897 23.3535L114.465 24.3423C113.66 24.0103 112.93 23.8442 112.275 23.8442C111.699 23.8442 111.265 23.9346 110.972 24.1152C110.679 24.2959 110.532 24.5449 110.532 24.8623C110.532 25.0771 110.586 25.2603 110.693 25.4116C110.806 25.563 110.984 25.707 111.228 25.8438C111.472 25.9805 111.941 26.1782 112.634 26.437C113.586 26.7837 114.229 27.1328 114.561 27.4844C114.897 27.8359 115.066 28.2778 115.066 28.8101Z" fill="#242424"/>
<g clip-path="url(#clip0_2_667)">
<path d="M139.5 22.1699C139.313 21.9837 139.059 21.8792 138.795 21.8792C138.531 21.8792 138.278 21.9837 138.09 22.1699L134.5 25.7099L130.96 22.1699C130.773 21.9837 130.519 21.8792 130.255 21.8792C129.991 21.8792 129.738 21.9837 129.55 22.1699C129.456 22.2629 129.382 22.3735 129.331 22.4954C129.281 22.6172 129.254 22.7479 129.254 22.8799C129.254 23.012 129.281 23.1427 129.331 23.2645C129.382 23.3864 129.456 23.497 129.55 23.5899L133.79 27.8299C133.883 27.9237 133.994 27.9981 134.116 28.0488C134.237 28.0996 134.368 28.1257 134.5 28.1257C134.632 28.1257 134.763 28.0996 134.885 28.0488C135.007 27.9981 135.117 27.9237 135.21 27.8299L139.5 23.5899C139.594 23.497 139.668 23.3864 139.719 23.2645C139.77 23.1427 139.796 23.012 139.796 22.8799C139.796 22.7479 139.77 22.6172 139.719 22.4954C139.668 22.3735 139.594 22.2629 139.5 22.1699Z" fill="#242424"/>
</g>
<rect x="0.5" y="0.5" width="159" height="49" rx="4.5" stroke="#CCCCCC"/>
<defs>
<clipPath id="clip0_2_667">
<rect width="24" height="24" fill="white" transform="translate(122.5 13)"/>
</clipPath>
</defs>
</svg>
