<svg width="36" height="36" viewBox="0 0 36 36" fill="none" xmlns="http://www.w3.org/2000/svg">
<rect x="0.5" y="0.5" width="35" height="35" rx="4.5" fill="white" stroke="#CCCCCC"/>
<g clip-path="url(#clip0_195_411)">
<path d="M23.2185 15.1699C23.0311 14.9837 22.7776 14.8792 22.5135 14.8792C22.2493 14.8792 21.9958 14.9837 21.8085 15.1699L18.2185 18.7099L14.6785 15.1699C14.4911 14.9837 14.2376 14.8792 13.9735 14.8792C13.7093 14.8792 13.4558 14.9837 13.2685 15.1699C13.1747 15.2629 13.1003 15.3735 13.0496 15.4954C12.9988 15.6172 12.9727 15.7479 12.9727 15.8799C12.9727 16.012 12.9988 16.1427 13.0496 16.2645C13.1003 16.3864 13.1747 16.497 13.2685 16.5899L17.5085 20.8299C17.6014 20.9237 17.712 20.9981 17.8339 21.0488C17.9557 21.0996 18.0864 21.1257 18.2185 21.1257C18.3505 21.1257 18.4812 21.0996 18.603 21.0488C18.7249 20.9981 18.8355 20.9237 18.9285 20.8299L23.2185 16.5899C23.3122 16.497 23.3866 16.3864 23.4373 16.2645C23.4881 16.1427 23.5143 16.012 23.5143 15.8799C23.5143 15.7479 23.4881 15.6172 23.4373 15.4954C23.3866 15.3735 23.3122 15.2629 23.2185 15.1699Z" fill="#242424"/>
</g>
<defs>
<clipPath id="clip0_195_411">
<rect width="24" height="24" fill="white" transform="translate(6.21875 6)"/>
</clipPath>
</defs>
</svg>
