<svg width="36" height="36" viewBox="0 0 36 36" fill="none" xmlns="http://www.w3.org/2000/svg">
<rect x="0.5" y="0.5" width="35" height="35" rx="4.5" fill="white" stroke="#CCCCCC"/>
<path d="M11 23.9999H15.24C15.3716 24.0007 15.5021 23.9755 15.6239 23.9257C15.7457 23.8759 15.8566 23.8026 15.95 23.7099L22.87 16.7799L25.71 13.9999C25.8037 13.907 25.8781 13.7964 25.9289 13.6745C25.9797 13.5527 26.0058 13.422 26.0058 13.2899C26.0058 13.1579 25.9797 13.0272 25.9289 12.9054C25.8781 12.7835 25.8037 12.6729 25.71 12.5799L21.47 8.28994C21.377 8.19621 21.2664 8.12182 21.1446 8.07105C21.0227 8.02028 20.892 7.99414 20.76 7.99414C20.628 7.99414 20.4973 8.02028 20.3754 8.07105C20.2536 8.12182 20.143 8.19621 20.05 8.28994L17.23 11.1199L10.29 18.0499C10.1973 18.1434 10.124 18.2542 10.0742 18.376C10.0245 18.4979 9.99924 18.6283 10 18.7599V22.9999C10 23.2652 10.1054 23.5195 10.2929 23.707C10.4804 23.8946 10.7348 23.9999 11 23.9999ZM20.76 10.4099L23.59 13.2399L22.17 14.6599L19.34 11.8299L20.76 10.4099ZM12 19.1699L17.93 13.2399L20.76 16.0699L14.83 21.9999H12V19.1699ZM27 25.9999H9C8.73478 25.9999 8.48043 26.1053 8.29289 26.2928C8.10536 26.4804 8 26.7347 8 26.9999C8 27.2652 8.10536 27.5195 8.29289 27.707C8.48043 27.8946 8.73478 27.9999 9 27.9999H27C27.2652 27.9999 27.5196 27.8946 27.7071 27.707C27.8946 27.5195 28 27.2652 28 26.9999C28 26.7347 27.8946 26.4804 27.7071 26.2928C27.5196 26.1053 27.2652 25.9999 27 25.9999Z" fill="#242424"/>
</svg>
