<svg width="24" height="24" viewBox="0 0 24 24" fill="none" xmlns="http://www.w3.org/2000/svg">
<path d="M2.5008 10.5601L11.5008 15.7601C11.6528 15.8478 11.8253 15.894 12.0008 15.894C12.1763 15.894 12.3488 15.8478 12.5008 15.7601L21.5008 10.5601C21.6523 10.4722 21.7781 10.346 21.8656 10.1942C21.953 10.0424 21.999 9.87026 21.999 9.69507C21.999 9.51988 21.953 9.34776 21.8656 9.19596C21.7781 9.04415 21.6523 8.91797 21.5008 8.83007L12.5008 3.63007C12.3488 3.5423 12.1763 3.49609 12.0008 3.49609C11.8253 3.49609 11.6528 3.5423 11.5008 3.63007L2.5008 8.83007C2.34927 8.91797 2.22348 9.04415 2.13604 9.19596C2.0486 9.34776 2.00258 9.51988 2.00258 9.69507C2.00258 9.87026 2.0486 10.0424 2.13604 10.1942C2.22348 10.346 2.34927 10.4722 2.5008 10.5601ZM12.0008 5.65007L19.0008 9.65007L12.0008 13.7001L5.0008 9.69007L12.0008 5.65007ZM20.5008 13.4401L12.0008 18.3501L3.5008 13.4401C3.38727 13.3735 3.26171 13.3301 3.13134 13.3122C3.00097 13.2942 2.86835 13.3022 2.74107 13.3357C2.6138 13.3691 2.49438 13.4274 2.38965 13.5071C2.28493 13.5867 2.19697 13.6863 2.1308 13.8001C2.06469 13.9142 2.0218 14.0403 2.00462 14.1711C1.98743 14.3018 1.99629 14.4347 2.03068 14.5621C2.06507 14.6894 2.12432 14.8087 2.205 14.913C2.28569 15.0174 2.38622 15.1047 2.5008 15.1701L11.5008 20.3701C11.6528 20.4578 11.8253 20.504 12.0008 20.504C12.1763 20.504 12.3488 20.4578 12.5008 20.3701L21.5008 15.1701C21.6154 15.1047 21.7159 15.0174 21.7966 14.913C21.8773 14.8087 21.9365 14.6894 21.9709 14.5621C22.0053 14.4347 22.0142 14.3018 21.997 14.1711C21.9798 14.0403 21.9369 13.9142 21.8708 13.8001C21.8046 13.6863 21.7167 13.5867 21.612 13.5071C21.5072 13.4274 21.3878 13.3691 21.2605 13.3357C21.1333 13.3022 21.0006 13.2942 20.8703 13.3122C20.7399 13.3301 20.6143 13.3735 20.5008 13.4401Z" fill="#242424"/>
</svg>
