<svg width="16" height="18" viewBox="0 0 16 18" fill="none" xmlns="http://www.w3.org/2000/svg">
<path d="M14 9.18V6C13.9986 4.58312 13.4958 3.21247 12.5806 2.13077C11.6655 1.04908 10.3971 0.326146 9 0.0900002V-1C9 -1.26522 8.89464 -1.51957 8.70711 -1.70711C8.51957 -1.89464 8.26522 -2 8 -2C7.73478 -2 7.48043 -1.89464 7.29289 -1.70711C7.10536 -1.51957 7 -1.26522 7 -1V0.0900002C5.60294 0.326146 4.33452 1.04908 3.41939 2.13077C2.50425 3.21247 2.00144 4.58312 2 6V9.18C1.41645 9.38631 0.910998 9.76807 0.552938 10.2729C0.194879 10.7778 0.00173951 11.3811 0 12V14C0 14.2652 0.105357 14.5196 0.292893 14.7071C0.48043 14.8946 0.734784 15 1 15H4.14C4.37028 15.8474 4.873 16.5954 5.5706 17.1287C6.26819 17.6621 7.1219 17.951 8 17.951C8.8781 17.951 9.73181 17.6621 10.4294 17.1287C11.127 16.5954 11.6297 15.8474 11.86 15H15C15.2652 15 15.5196 14.8946 15.7071 14.7071C15.8946 14.5196 16 14.2652 16 14V12C15.9983 11.3811 15.8051 10.7778 15.4471 10.2729C15.089 9.76807 14.5835 9.38631 14 9.18ZM4 6C4 4.93913 4.42143 3.92172 5.17157 3.17157C5.92172 2.42143 6.93913 2 8 2C9.06087 2 10.0783 2.42143 10.8284 3.17157C11.5786 3.92172 12 4.93913 12 6V9H4V6ZM8 16C7.65097 15.9979 7.30857 15.9045 7.00683 15.7291C6.70509 15.5536 6.45451 15.3023 6.28 15H9.72C9.54549 15.3023 9.29491 15.5536 8.99317 15.7291C8.69143 15.9045 8.34903 15.9979 8 16ZM14 13H2V12C2 11.7348 2.10536 11.4804 2.29289 11.2929C2.48043 11.1054 2.73478 11 3 11H13C13.2652 11 13.5196 11.1054 13.7071 11.2929C13.8946 11.4804 14 11.7348 14 12V13Z" fill="#242424"/>
</svg>
