<svg width="17" height="16" viewBox="0 0 17 16" fill="none" xmlns="http://www.w3.org/2000/svg">
<path d="M15.332 7H9.33203L9.33203 1C9.33203 0.734784 9.22667 0.48043 9.03914 0.292893C8.8516 0.105357 8.59725 0 8.33203 0C8.06681 0 7.81246 0.105357 7.62492 0.292893C7.43739 0.48043 7.33203 0.734784 7.33203 1L7.33203 7H1.33203C1.06681 7 0.812461 7.10536 0.624925 7.29289C0.437388 7.48043 0.332031 7.73478 0.332031 8C0.332031 8.26522 0.437388 8.51957 0.624925 8.70711C0.812461 8.89464 1.06681 9 1.33203 9H7.33203L7.33203 15C7.33203 15.2652 7.43739 15.5196 7.62492 15.7071C7.81246 15.8946 8.06681 16 8.33203 16C8.59725 16 8.8516 15.8946 9.03914 15.7071C9.22667 15.5196 9.33203 15.2652 9.33203 15L9.33203 9H15.332C15.5972 9 15.8516 8.89464 16.0391 8.70711C16.2267 8.51957 16.332 8.26522 16.332 8C16.332 7.73478 16.2267 7.48043 16.0391 7.29289C15.8516 7.10536 15.5972 7 15.332 7Z" fill="#242424"/>
</svg>
