<svg width="24" height="24" viewBox="0 0 24 24" fill="none" xmlns="http://www.w3.org/2000/svg">
<path d="M8.18 4.00009L3 4.00009C2.73478 4.00009 2.48043 4.10544 2.29289 4.29298C2.10536 4.48051 2 4.73487 2 5.00009C2 5.2653 2.10536 5.51966 2.29289 5.70719C2.48043 5.89473 2.73478 6.00009 3 6.00009L8.18 6.00009C8.3902 6.57924 8.77363 7.07963 9.27817 7.43324C9.7827 7.78686 10.3839 7.97656 11 7.97656C11.6161 7.97656 12.2173 7.78686 12.7218 7.43324C13.2264 7.07963 13.6098 6.57924 13.82 6.00009L21 6.00009C21.2652 6.00009 21.5196 5.89473 21.7071 5.70719C21.8946 5.51966 22 5.2653 22 5.00009C22 4.73487 21.8946 4.48051 21.7071 4.29298C21.5196 4.10544 21.2652 4.00009 21 4.00009L13.82 4.00009C13.6098 3.42093 13.2264 2.92055 12.7218 2.56693C12.2173 2.21331 11.6161 2.02361 11 2.02361C10.3839 2.02361 9.7827 2.21331 9.27817 2.56693C8.77363 2.92055 8.3902 3.42093 8.18 4.00009V4.00009ZM12 5.00009C12 5.19787 11.9414 5.39121 11.8315 5.55566C11.7216 5.72011 11.5654 5.84828 11.3827 5.92397C11.2 5.99965 10.9989 6.01946 10.8049 5.98087C10.6109 5.94229 10.4327 5.84705 10.2929 5.70719C10.153 5.56734 10.0578 5.38916 10.0192 5.19518C9.98063 5.0012 10.0004 4.80013 10.0761 4.6174C10.1518 4.43468 10.28 4.2785 10.4444 4.16862C10.6089 4.05873 10.8022 4.00009 11 4.00009C11.2652 4.00009 11.5196 4.10544 11.7071 4.29298C11.8946 4.48051 12 4.73487 12 5.00009ZM14.18 11.0001L3 11.0001C2.73478 11.0001 2.48043 11.1054 2.29289 11.293C2.10536 11.4805 2 11.7349 2 12.0001C2 12.2653 2.10536 12.5197 2.29289 12.7072C2.48043 12.8947 2.73478 13.0001 3 13.0001L14.18 13.0001C14.3902 13.5792 14.7736 14.0796 15.2782 14.4332C15.7827 14.7869 16.3839 14.9766 17 14.9766C17.6161 14.9766 18.2173 14.7869 18.7218 14.4332C19.2264 14.0796 19.6098 13.5792 19.82 13.0001L21 13.0001C21.2652 13.0001 21.5196 12.8947 21.7071 12.7072C21.8946 12.5197 22 12.2653 22 12.0001C22 11.7349 21.8946 11.4805 21.7071 11.293C21.5196 11.1054 21.2652 11.0001 21 11.0001L19.82 11.0001C19.6098 10.4209 19.2264 9.92055 18.7218 9.56693C18.2173 9.21331 17.6161 9.02361 17 9.02361C16.3839 9.02361 15.7827 9.21331 15.2782 9.56693C14.7736 9.92055 14.3902 10.4209 14.18 11.0001ZM18 12.0001C18 12.1979 17.9414 12.3912 17.8315 12.5557C17.7216 12.7201 17.5654 12.8483 17.3827 12.924C17.2 12.9997 16.9989 13.0195 16.8049 12.9809C16.6109 12.9423 16.4327 12.847 16.2929 12.7072C16.153 12.5673 16.0578 12.3892 16.0192 12.1952C15.9806 12.0012 16.0004 11.8001 16.0761 11.6174C16.1518 11.4347 16.28 11.2785 16.4444 11.1686C16.6089 11.0587 16.8022 11.0001 17 11.0001C17.2652 11.0001 17.5196 11.1054 17.7071 11.293C17.8946 11.4805 18 11.7349 18 12.0001ZM6.18 18.0001L3 18.0001C2.73478 18.0001 2.48043 18.1054 2.29289 18.293C2.10536 18.4805 2 18.7349 2 19.0001C2 19.2653 2.10536 19.5197 2.29289 19.7072C2.48043 19.8947 2.73478 20.0001 3 20.0001L6.18 20.0001C6.3902 20.5792 6.77363 21.0796 7.27817 21.4332C7.7827 21.7869 8.38388 21.9766 9 21.9766C9.61612 21.9766 10.2173 21.7869 10.7218 21.4332C11.2264 21.0796 11.6098 20.5792 11.82 20.0001L21 20.0001C21.2652 20.0001 21.5196 19.8947 21.7071 19.7072C21.8946 19.5197 22 19.2653 22 19.0001C22 18.7349 21.8946 18.4805 21.7071 18.293C21.5196 18.1054 21.2652 18.0001 21 18.0001L11.82 18.0001C11.6098 17.4209 11.2264 16.9205 10.7218 16.5669C10.2173 16.2133 9.61612 16.0236 9 16.0236C8.38388 16.0236 7.7827 16.2133 7.27817 16.5669C6.77363 16.9205 6.3902 17.4209 6.18 18.0001V18.0001ZM10 19.0001C10 19.1979 9.94135 19.3912 9.83147 19.5557C9.72159 19.7201 9.56541 19.8483 9.38268 19.924C9.19996 19.9997 8.99889 20.0195 8.80491 19.9809C8.61093 19.9423 8.43275 19.847 8.29289 19.7072C8.15304 19.5673 8.0578 19.3892 8.01921 19.1952C7.98063 19.0012 8.00043 18.8001 8.07612 18.6174C8.15181 18.4347 8.27998 18.2785 8.44443 18.1686C8.60888 18.0587 8.80222 18.0001 9 18.0001C9.26522 18.0001 9.51957 18.1054 9.70711 18.293C9.89464 18.4805 10 18.7349 10 19.0001Z" fill="#242424"/>
</svg>
