<svg width="24" height="24" viewBox="0 0 24 24" fill="none" xmlns="http://www.w3.org/2000/svg">
<path d="M14.2099 7.21002L14.9999 6.41002V17C14.9999 17.2652 15.1053 17.5196 15.2928 17.7071C15.4804 17.8947 15.7347 18 15.9999 18C16.2652 18 16.5195 17.8947 16.707 17.7071C16.8946 17.5196 16.9999 17.2652 16.9999 17V6.41002L17.7899 7.21002C17.8829 7.30375 17.9935 7.37814 18.1154 7.42891C18.2372 7.47968 18.3679 7.50582 18.4999 7.50582C18.632 7.50582 18.7627 7.47968 18.8845 7.42891C19.0064 7.37814 19.117 7.30375 19.2099 7.21002C19.3037 7.11706 19.3781 7.00645 19.4288 6.88459C19.4796 6.76274 19.5057 6.63203 19.5057 6.50002C19.5057 6.36801 19.4796 6.2373 19.4288 6.11544C19.3781 5.99358 19.3037 5.88298 19.2099 5.79002L16.7099 3.29002C16.6148 3.19898 16.5027 3.12761 16.3799 3.08002C16.1365 2.98 15.8634 2.98 15.6199 3.08002C15.4972 3.12761 15.385 3.19898 15.2899 3.29002L12.7899 5.79002C12.6016 5.97832 12.4958 6.23372 12.4958 6.50002C12.4958 6.76632 12.6016 7.02172 12.7899 7.21002C12.9782 7.39832 13.2336 7.50411 13.4999 7.50411C13.7662 7.50411 14.0216 7.39832 14.2099 7.21002ZM9.78994 16.79L8.99994 17.59V7.00002C8.99994 6.7348 8.89458 6.48045 8.70705 6.29291C8.51951 6.10538 8.26516 6.00002 7.99994 6.00002C7.73472 6.00002 7.48037 6.10538 7.29283 6.29291C7.1053 6.48045 6.99994 6.7348 6.99994 7.00002V17.59L6.20994 16.79C6.1167 16.6968 6.00601 16.6228 5.88419 16.5724C5.76237 16.5219 5.6318 16.4959 5.49994 16.4959C5.36808 16.4959 5.23751 16.5219 5.11569 16.5724C4.99387 16.6228 4.88318 16.6968 4.78994 16.79C4.6967 16.8833 4.62274 16.9939 4.57228 17.1158C4.52182 17.2376 4.49585 17.3682 4.49585 17.5C4.49585 17.6319 4.52182 17.7624 4.57228 17.8843C4.62274 18.0061 4.6967 18.1168 4.78994 18.21L7.28994 20.71C7.38504 20.8011 7.49719 20.8724 7.61994 20.92C7.73964 20.9729 7.86907 21.0003 7.99994 21.0003C8.13081 21.0003 8.26024 20.9729 8.37994 20.92C8.50269 20.8724 8.61484 20.8011 8.70994 20.71L11.2099 18.21C11.3982 18.0217 11.504 17.7663 11.504 17.5C11.504 17.2337 11.3982 16.9783 11.2099 16.79C11.0216 16.6017 10.7662 16.4959 10.4999 16.4959C10.2336 16.4959 9.97824 16.6017 9.78994 16.79Z" fill="#242424"/>
</svg>
