<svg width="540" height="64" viewBox="0 0 64 64" fill="none" xmlns="http://www.w3.org/2000/svg">
<path d="M32.5 61.5V27.5" stroke="#4AA09B" stroke-width="2" stroke-linecap="round" stroke-linejoin="round"/>
<path d="M21.5 38.5L32.5 27.5L43.5 38.5" stroke="#4AA09B" stroke-width="2" stroke-linecap="round" stroke-linejoin="round"/>
<path d="M40.5 46.4999H52.5C55.2448 46.2391 57.7928 44.9612 59.6432 42.9173C61.4936 40.8734 62.5127 38.2113 62.5002 35.4542C62.4877 32.6971 61.4444 30.0444 59.5755 28.0174C57.7065 25.9904 55.1471 24.7357 52.4001 24.4999C51.9424 19.9009 49.9043 15.6028 46.6329 12.3381C43.3615 9.07344 39.0593 7.04409 34.4594 6.59589C29.8595 6.1477 25.2465 7.30838 21.4064 9.88017C17.5663 12.452 14.7368 16.2757 13.4001 20.6999C10.355 21.1825 7.58289 22.7378 5.58405 25.0851C3.58521 27.4323 2.49139 30.4169 2.50005 33.4999C2.50637 36.7766 3.74335 39.9314 5.96588 42.3391C8.18841 44.7469 11.2343 46.2319 14.5001 46.4999H24.5001" stroke="#242424" stroke-width="2" stroke-linecap="round" stroke-linejoin="round"/>
</svg>